<svg width="64" height="64" viewBox="0 0 64 64" fill="none" xmlns="http://www.w3.org/2000/svg" role="img" aria-label="Striops">
  <!-- Soft H verticals with inviting round caps -->
  <rect x="12" y="11" width="10" height="42" rx="5" fill="#14b8a6"/>
  <rect x="42" y="11" width="10" height="42" rx="5" fill="#14b8a6"/>
  <!-- Soft compass-needle crossbar -->
  <path d="M22 32 C26 27.5 29 26.5 32 26.5 C35 26.5 38 27.5 42 32 C38 36.5 35 37.5 32 37.5 C29 37.5 26 36.5 22 32 Z" fill="#14b8a6"/>
  <!-- Gold foresight tip (rounded) -->
  <path d="M36.5 29.2 C39 30.2 40.8 31.2 42 32 C40.8 32.8 39 33.8 36.5 34.8 C38.2 32.8 38.2 31.2 36.5 29.2 Z" fill="#f59e0b"/>
  <!-- Soft hub -->
  <circle cx="32" cy="32" r="5" fill="#061018"/>
  <circle cx="32" cy="32" r="5" fill="none" stroke="#14b8a6" stroke-width="2.2"/>
  <circle cx="32" cy="32" r="2.2" fill="#14b8a6"/>
</svg>
